<svg height="16" viewBox="0 0 275 16" width="275" xmlns="http://www.w3.org/2000/svg"><g fill="#f26438"><path d="m83.23 6.35h1.12v3.17h-1.12z"/><path d="m86.4 6.35h1.12v3.17h-1.12z"/><path d="m92.75 6.35h1.12v3.17h-1.12z"/><path d="m89.58 6.35h1.12v3.17h-1.12z"/><path d="m64.19 6.35h1.12v3.17h-1.12z"/><path d="m67.36 6.35h1.12v3.17h-1.12z"/><path d="m95.92 6.35h1.12v3.17h-1.12z"/><path d="m80.06 6.35h1.12v3.17h-1.12z"/><path d="m76.88 6.35h1.12v3.17h-1.12z"/><path d="m73.71 6.35h1.12v3.17h-1.12z"/><path d="m70.53 6.35h1.12v3.17h-1.12z"/><path d="m124.49 6.35h1.12v3.17h-1.12z"/><path d="m118.14 6.35h1.12v3.17h-1.12z"/><path d="m121.32 6.35h1.12v3.17h-1.12z"/><path d="m130.84 6.35h1.12v3.17h-1.12z"/><path d="m127.66 6.35h1.12v3.17h-1.12z"/><path d="m105.45 6.35h1.12v3.17h-1.12z"/><path d="m99.1 6.35h1.12v3.17h-1.12z"/><path d="m102.27 6.35h1.12v3.17h-1.12z"/><path d="m114.97 6.35h1.12v3.17h-1.12z"/><path d="m108.62 6.35h1.12v3.17h-1.12z"/><path d="m111.79 6.35h1.12v3.17h-1.12z"/><path d="m22.93 6.35h1.12v3.17h-1.12z"/><path d="m10.23 6.35h1.12v3.17h-1.12z"/><path d="m26.1 6.35h1.12v3.17h-1.12z"/><path d="m13.41 6.35h1.12v3.17h-1.12z"/><path d="m19.75 6.35h1.12v3.17h-1.12z"/><path d="m134.01 6.35h1.12v3.17h-1.12z"/><path d="m16.58 6.35h1.12v3.17h-1.12z"/><path d="m.64 15.87h1.27l.63-3.17h-2.54z"/><path d="m.71 6.35h1.12v3.17h-1.12z"/><path d="m.64 0-.64 3.17h2.54l-.63-3.17z"/><path d="m7.06 6.35h1.12v3.17h-1.12z"/><path d="m3.88 6.35h1.12v3.17h-1.12z"/><path d="m38.8 6.35h1.12v3.17h-1.12z"/><path d="m51.49 6.35h1.12v3.17h-1.12z"/><path d="m48.32 6.35h1.12v3.17h-1.12z"/><path d="m29.27 6.35h1.12v3.17h-1.12z"/><path d="m57.84 6.35h1.12v3.17h-1.12z"/><path d="m54.66 6.35h1.12v3.17h-1.12z"/><path d="m45.14 6.35h1.12v3.17h-1.12z"/><path d="m32.45 6.35h1.12v3.17h-1.12z"/><path d="m35.62 6.35h1.12v3.17h-1.12z"/><path d="m41.97 6.35h1.12v3.17h-1.12z"/><path d="m61.01 6.35h1.12v3.17h-1.12z"/><path d="m222.88 6.35h1.12v3.17h-1.12z"/><path d="m226.05 6.35h1.12v3.17h-1.12z"/><path d="m229.23 6.35h1.12v3.17h-1.12z"/><path d="m232.4 6.35h1.12v3.17h-1.12z"/><path d="m235.57 6.35h1.12v3.17h-1.12z"/><path d="m238.75 6.35h1.12v3.17h-1.12z"/><path d="m216.53 6.35h1.12v3.17h-1.12z"/><path d="m207.01 6.35h1.12v3.17h-1.12z"/><path d="m210.18 6.35h1.12v3.17h-1.12z"/><path d="m213.36 6.35h1.12v3.17h-1.12z"/><path d="m219.7 6.35h1.12v3.17h-1.12z"/><path d="m241.92 6.35h1.12v3.17h-1.12z"/><path d="m273.66 6.35h1.12v3.17h-1.12z"/><path d="m267.31 6.35h1.12v3.17h-1.12z"/><path d="m245.1 6.35h1.12v3.17h-1.12z"/><path d="m264.14 6.35h1.12v3.17h-1.12z"/><path d="m203.83 6.35h1.12v3.17h-1.12z"/><path d="m270.49 6.35h1.12v3.17h-1.12z"/><path d="m137.18 6.35h1.12v3.17h-1.12z"/><path d="m248.27 6.35h1.12v3.17h-1.12z"/><path d="m251.44 6.35h1.12v3.17h-1.12z"/><path d="m257.79 6.35h1.12v3.17h-1.12z"/><path d="m254.62 6.35h1.12v3.17h-1.12z"/><path d="m260.97 6.35h1.12v3.17h-1.12z"/><path d="m159.33 15.87h1.27l.63-3.17h-2.54z"/><path d="m159.4 6.35h1.12v3.17h-1.12z"/><path d="m162.58 6.35h1.12v3.17h-1.12z"/><path d="m156.23 6.35h1.12v3.17h-1.12z"/><path d="m159.33 0-.64 3.17h2.54l-.63-3.17z"/><path d="m146.71 6.35h1.12v3.17h-1.12z"/><path d="m140.36 6.35h1.12v3.17h-1.12z"/><path d="m143.53 6.35h1.12v3.17h-1.12z"/><path d="m153.05 6.35h1.12v3.17h-1.12z"/><path d="m165.75 6.35h1.12v3.17h-1.12z"/><path d="m149.88 6.35h1.12v3.17h-1.12z"/><path d="m187.96 6.35h1.12v3.17h-1.12z"/><path d="m191.14 6.35h1.12v3.17h-1.12z"/><path d="m200.66 6.35h1.12v3.17h-1.12z"/><path d="m197.49 6.35h1.12v3.17h-1.12z"/><path d="m194.31 6.35h1.12v3.17h-1.12z"/><path d="m184.79 6.35h1.12v3.17h-1.12z"/><path d="m178.44 6.35h1.12v3.17h-1.12z"/><path d="m181.62 6.35h1.12v3.17h-1.12z"/><path d="m175.27 6.35h1.12v3.17h-1.12z"/><path d="m172.1 6.35h1.12v3.17h-1.12z"/><path d="m168.92 6.35h1.12v3.17h-1.12z"/></g></svg>